<svg width="25" height="25" viewBox="0 0 25 25" fill="none" xmlns="http://www.w3.org/2000/svg">
<g clip-path="url(#clip0_2010_3854)">
<path d="M24.5856 19.6963L23.1916 15.6396C23.8635 14.266 24.2186 12.7385 24.221 11.2015C24.2251 8.52897 23.1912 6.00208 21.3095 4.08629C19.4275 2.17013 16.9196 1.09149 14.2477 1.04916C11.4771 1.00538 8.87293 2.05923 6.91509 4.01701C5.02725 5.90481 3.98015 8.39355 3.94701 11.0531C2.08635 12.454 0.988115 14.6381 0.991724 16.971C0.993458 18.0628 1.23918 19.148 1.70479 20.1293L0.744645 22.9234C0.579598 23.4038 0.700161 23.9253 1.05932 24.2844C1.31207 24.5372 1.6453 24.6718 1.98801 24.6718C2.13219 24.6718 2.27807 24.648 2.42034 24.5991L5.21451 23.639C6.19584 24.1046 7.28105 24.3503 8.37277 24.352C8.37671 24.352 8.38046 24.352 8.38439 24.352C10.7521 24.3519 12.9528 23.2254 14.3486 21.3191C15.8012 21.2809 17.2383 20.9293 18.5375 20.2937L22.5943 21.6877C22.7633 21.7457 22.9367 21.774 23.108 21.774C23.5153 21.774 23.9113 21.6141 24.2117 21.3136C24.6384 20.8868 24.7817 20.2671 24.5856 19.6963ZM8.3843 22.9235C8.38125 22.9235 8.37802 22.9235 8.37497 22.9235C7.40869 22.922 6.44911 22.6838 5.60016 22.2346C5.42559 22.1423 5.22065 22.1264 5.034 22.1905L2.16885 23.175L3.15337 20.3099C3.21749 20.1232 3.20156 19.9183 3.10921 19.7437C2.66006 18.8947 2.42184 17.9352 2.42034 16.9689C2.41795 15.4146 3.02259 13.9413 4.07995 12.8382C4.42532 14.9436 5.42878 16.8838 6.98419 18.4115C8.52811 19.928 10.4688 20.8935 12.5628 21.2092C11.4572 22.299 9.96671 22.9235 8.3843 22.9235ZM23.2014 20.3035C23.1608 20.3441 23.1126 20.3552 23.0584 20.3365L18.7155 18.8442C18.6401 18.8183 18.5616 18.8054 18.4834 18.8054C18.3682 18.8054 18.2533 18.8333 18.1494 18.8884C16.9094 19.5443 15.5082 19.8922 14.0972 19.8944C14.0926 19.8944 14.0883 19.8944 14.0837 19.8944C9.35574 19.8944 5.45044 16.0537 5.37553 11.3269C5.3378 8.94635 6.24333 6.70905 7.92525 5.02712C9.60718 3.3452 11.8449 2.43999 14.2251 2.47749C18.9565 2.55254 22.7998 6.46506 22.7924 11.1992C22.7902 12.6102 22.4424 14.0115 21.7865 15.2514C21.6941 15.4259 21.6782 15.6308 21.7423 15.8175L23.2346 20.1604C23.2532 20.2148 23.242 20.2629 23.2014 20.3035Z" fill="#7A1FA0"/>
<path d="M18.3388 7.39941H9.82814C9.43364 7.39941 9.11386 7.71924 9.11386 8.1137C9.11386 8.5082 9.43369 8.82798 9.82814 8.82798H18.3388C18.7333 8.82798 19.0531 8.50815 19.0531 8.1137C19.0531 7.71924 18.7333 7.39941 18.3388 7.39941Z" fill="#7A1FA0"/>
<path d="M18.3388 10.3369H9.82814C9.43364 10.3369 9.11386 10.6567 9.11386 11.0512C9.11386 11.4457 9.43369 11.7655 9.82814 11.7655H18.3388C18.7333 11.7655 19.0531 11.4457 19.0531 11.0512C19.0531 10.6567 18.7333 10.3369 18.3388 10.3369Z" fill="#7A1FA0"/>
<path d="M15.0628 13.2744H9.82808C9.43358 13.2744 9.1138 13.5942 9.1138 13.9887C9.1138 14.3832 9.43363 14.703 9.82808 14.703H15.0627C15.4572 14.703 15.777 14.3832 15.777 13.9887C15.777 13.5942 15.4573 13.2744 15.0628 13.2744Z" fill="#7A1FA0"/>
</g>
<defs>
<clipPath id="clip0_2010_3854">
<rect width="24" height="24" fill="white" transform="translate(0.671936 0.859375)"/>
</clipPath>
</defs>
</svg>
