<svg width="25" height="25" viewBox="0 0 25 25" fill="none" xmlns="http://www.w3.org/2000/svg">
<g clip-path="url(#clip0_2010_3849)">
<path d="M12.6719 3.67188V5.54688H10.7969V3.67188H12.6719ZM10.7969 14.6875V17.3594H12.6719V14.6875H10.7969ZM16.4219 24.8594V22.9844H14.5469V21.1094H12.6719V24.8594H16.4219ZM20.1719 10.9375H14.5469V12.8125H20.1719V10.9375ZM20.1719 14.6875H22.7969V12.8125H20.1719V14.6875ZM20.1719 17.3594V19.2344H24.6719V14.6875H22.7969V17.3594H20.1719ZM14.5469 0.859375H12.6719V3.67188H14.5469V0.859375ZM12.6719 9.29688H14.5469V5.54688H12.6719V7.42188H10.7969V12.8125H12.6719V9.29688ZM0.671936 10.9375V14.6875H2.54694V12.8125H5.35944V10.9375H0.671936ZM14.5469 14.6875V12.8125H12.6719V14.6875H14.5469ZM18.2969 16.5625H20.1719V14.6875H18.2969V16.5625ZM22.7969 12.8125H24.6719V10.9375H22.7969V12.8125ZM16.4219 14.6875H14.5469V17.3594H12.6719V19.2344H16.4219V14.6875ZM10.7969 21.1094H12.6719V19.2344H10.7969V21.1094ZM16.4219 19.2344V21.1094H20.1719V19.2344H16.4219ZM22.0469 22.9844V21.1094H20.1719V22.9844H22.0469ZM24.6719 24.8594V22.9844H22.0469V24.8594H24.6719ZM18.2969 24.8594H20.1719V22.9844H18.2969V24.8594ZM9.10944 12.8125V10.9375H7.23444V12.8125H5.35944V14.6875H10.7969V12.8125H9.10944ZM9.10944 9.29688H0.671936V0.859375H9.10944V9.29688ZM7.23444 2.73438H2.54694V7.42188H7.23444V2.73438ZM5.82819 4.14062H3.95319V6.01562H5.82819V4.14062ZM24.6719 0.859375V9.29688H16.2344V0.859375H24.6719ZM22.7969 2.73438H18.1094V7.42188H22.7969V2.73438ZM21.3907 4.14062H19.5157V6.01562H21.3907V4.14062ZM0.671936 16.4219H9.10944V24.8594H0.671936V16.4219ZM2.54694 22.9844H7.23444V18.2969H2.54694V22.9844ZM3.95319 21.5781H5.82819V19.7031H3.95319V21.5781Z" fill="#7A1FA0"/>
</g>
<defs>
<clipPath id="clip0_2010_3849">
<rect width="24" height="24" fill="white" transform="translate(0.671936 0.859375)"/>
</clipPath>
</defs>
</svg>
