<svg width="25" height="25" viewBox="0 0 25 25" fill="none" xmlns="http://www.w3.org/2000/svg">
<path d="M22.6719 23.6094H2.67194C2.26194 23.6094 1.92194 23.2694 1.92194 22.8594C1.92194 22.4494 2.26194 22.1094 2.67194 22.1094H22.6719C23.0819 22.1094 23.4219 22.4494 23.4219 22.8594C23.4219 23.2694 23.0819 23.6094 22.6719 23.6094Z" fill="#7A1FA0"/>
<path d="M14.9219 23.6094H10.4219C10.0119 23.6094 9.67194 23.2694 9.67194 22.8594V4.85938C9.67194 3.13937 10.6219 2.10938 12.2219 2.10938H13.1219C14.7219 2.10938 15.6719 3.13937 15.6719 4.85938V22.8594C15.6719 23.2694 15.3319 23.6094 14.9219 23.6094ZM11.1719 22.1094H14.1719V4.85938C14.1719 3.70938 13.6319 3.60938 13.1219 3.60938H12.2219C11.7119 3.60938 11.1719 3.70938 11.1719 4.85938V22.1094Z" fill="#7A1FA0"/>
<path d="M7.67194 23.6094H3.67194C3.26194 23.6094 2.92194 23.2694 2.92194 22.8594V10.8594C2.92194 9.13937 3.80194 8.10938 5.27194 8.10938H6.07194C7.54194 8.10938 8.42194 9.13937 8.42194 10.8594V22.8594C8.42194 23.2694 8.08194 23.6094 7.67194 23.6094ZM4.42194 22.1094H6.92194V10.8594C6.92194 9.60938 6.37194 9.60938 6.07194 9.60938H5.27194C4.97194 9.60938 4.42194 9.60938 4.42194 10.8594V22.1094Z" fill="#7A1FA0"/>
<path d="M21.6719 23.6094H17.6719C17.2619 23.6094 16.9219 23.2694 16.9219 22.8594V15.8594C16.9219 14.1394 17.8019 13.1094 19.2719 13.1094H20.0719C21.5419 13.1094 22.4219 14.1394 22.4219 15.8594V22.8594C22.4219 23.2694 22.0819 23.6094 21.6719 23.6094ZM18.4219 22.1094H20.9219V15.8594C20.9219 14.6094 20.3719 14.6094 20.0719 14.6094H19.2719C18.9719 14.6094 18.4219 14.6094 18.4219 15.8594V22.1094Z" fill="#7A1FA0"/>
</svg>
