<svg width="25" height="25" viewBox="0 0 25 25" fill="none" xmlns="http://www.w3.org/2000/svg">
<g clip-path="url(#clip0_2010_3844)">
<path d="M23.6179 14.767L22.6195 13.945C21.9356 13.382 21.9368 12.3356 22.6195 11.7737L23.6179 10.9518C24.3284 10.3668 24.5101 9.36381 24.05 8.5667L22.0785 5.15205C21.6183 4.35498 20.6586 4.01092 19.7969 4.3337L18.5859 4.78741C17.7564 5.09809 16.8508 4.57408 16.7054 3.70173L16.4929 2.42608C16.3415 1.5183 15.5638 0.859375 14.6434 0.859375H10.7005C9.78012 0.859375 9.00228 1.5183 8.85102 2.42613L8.63839 3.70173C8.49275 4.57562 7.58591 5.09758 6.75795 4.78745L5.54694 4.3337C4.68523 4.01092 3.72561 4.35503 3.26534 5.15205L1.29392 8.56666C0.83375 9.36367 1.01544 10.3667 1.72602 10.9517L2.72441 11.7737C3.40841 12.3367 3.40705 13.3831 2.72441 13.945L1.72597 14.7669C1.01544 15.3519 0.833703 16.355 1.29387 17.152L3.26534 20.5667C3.72556 21.3637 4.685 21.7078 5.54694 21.385L6.75791 20.9313C7.58755 20.6205 8.49298 21.1449 8.63834 22.017L8.85097 23.2925C9.00228 24.2005 9.78012 24.8594 10.7005 24.8594H14.6434C15.5637 24.8594 16.3415 24.2005 16.4928 23.2926L16.7054 22.0171C16.851 21.1434 17.7578 20.6211 18.5859 20.9314L19.7969 21.385C20.6588 21.7079 21.6183 21.3638 22.0785 20.5667L24.05 17.152C24.5101 16.355 24.3284 15.3519 23.6179 14.767ZM20.4547 19.6292L19.2437 19.1755C17.3078 18.4503 15.1951 19.6738 14.856 21.7088L14.6434 22.9844H10.7005L10.4879 21.7088C10.1481 19.6698 8.0323 18.4517 6.10016 19.1755L4.88914 19.6292L2.91772 16.2145L3.91611 15.3926C5.51216 14.0787 5.50883 11.6373 3.91611 10.3261L2.91772 9.5042L4.88919 6.08955L6.10016 6.54325C8.03609 7.26841 10.1488 6.04497 10.4879 4.00998L10.7005 2.73438H14.6434L14.8559 4.00998C15.1958 6.04914 17.3117 7.26691 19.2437 6.54325L20.4547 6.08955L22.4266 9.50373C22.4266 9.50373 22.4264 9.50387 22.4261 9.50416L21.4277 10.3261C19.8317 11.6399 19.8349 14.0814 21.4277 15.3926L22.4261 16.2145L20.4547 19.6292ZM12.6719 8.23436C10.1217 8.23436 8.04692 10.3091 8.04692 12.8594C8.04692 15.4096 10.1217 17.4844 12.6719 17.4844C15.2222 17.4844 17.297 15.4096 17.297 12.8594C17.297 10.3091 15.2222 8.23436 12.6719 8.23436ZM12.6719 15.6094C11.1556 15.6094 9.92192 14.3757 9.92192 12.8594C9.92192 11.343 11.1556 10.1094 12.6719 10.1094C14.1883 10.1094 15.422 11.343 15.422 12.8594C15.422 14.3757 14.1883 15.6094 12.6719 15.6094Z" fill="#7A1FA0"/>
</g>
<defs>
<clipPath id="clip0_2010_3844">
<rect width="24" height="24" fill="white" transform="translate(0.671936 0.859375)"/>
</clipPath>
</defs>
</svg>
