<svg width="72" height="72" viewBox="0 0 72 72" fill="none" xmlns="http://www.w3.org/2000/svg">
<g filter="url(#filter0_d_0_1)">
<rect x="1.16968" y="1.35938" width="70" height="70" rx="10" fill="white"/>
</g>
<path fill-rule="evenodd" clip-rule="evenodd" d="M21.1697 25.4219C21.6874 25.4219 22.1072 25.8416 22.1072 26.3594V38.8594C22.1072 39.3771 21.6874 39.7969 21.1697 39.7969C20.6519 39.7969 20.2322 39.3771 20.2322 38.8594V26.3594C20.2322 25.8416 20.6519 25.4219 21.1697 25.4219Z" fill="#7A1FA0"/>
<path fill-rule="evenodd" clip-rule="evenodd" d="M36.1697 44.7998C34.0355 44.7998 31.9352 45.3323 30.0588 46.3488C28.1824 47.3654 26.5893 48.8342 25.4237 50.6218C25.141 51.0556 24.5601 51.1779 24.1264 50.8952C23.6927 50.6123 23.5703 50.0316 23.8531 49.5978C25.189 47.5488 27.015 45.8654 29.1657 44.7003C31.3163 43.5351 33.7237 42.9248 36.1697 42.9248C38.6157 42.9248 41.023 43.5351 43.1737 44.7003C45.3244 45.8654 47.1503 47.5488 48.4863 49.5978C48.769 50.0316 48.6467 50.6123 48.2129 50.8952C47.7792 51.1779 47.1984 51.0556 46.9155 50.6218C45.75 48.8342 44.1569 47.3654 42.2805 46.3488C40.4042 45.3323 38.3038 44.7998 36.1697 44.7998Z" fill="#7A1FA0"/>
<path fill-rule="evenodd" clip-rule="evenodd" d="M35.8732 20.47C36.0657 20.4058 36.2737 20.4058 36.4662 20.47L51.4662 25.47C51.8489 25.5976 52.1072 25.9559 52.1072 26.3594C52.1072 26.7629 51.8489 27.1212 51.4662 27.2488L36.4662 32.2488C36.2737 32.3129 36.0657 32.3129 35.8732 32.2488L20.8732 27.2488C20.4904 27.1212 20.2322 26.7629 20.2322 26.3594C20.2322 25.9559 20.4904 25.5976 20.8732 25.47L35.8732 20.47ZM24.1343 26.3594L36.1697 30.3711L48.2051 26.3594L36.1697 22.3476L24.1343 26.3594Z" fill="#7A1FA0"/>
<path fill-rule="evenodd" clip-rule="evenodd" d="M30.3497 28.5117C30.7316 28.8614 30.7577 29.4544 30.4079 29.8363C29.3842 30.9543 28.7078 32.346 28.4612 33.8418C28.2146 35.3374 28.4086 36.8726 29.0193 38.26C29.6301 39.6475 30.6313 40.8273 31.9009 41.6556C33.1706 42.4839 34.6538 42.9244 36.1697 42.9244C37.6856 42.9244 39.1688 42.4839 40.4384 41.6556C41.7081 40.8273 42.7093 39.6475 43.3201 38.26C43.9308 36.8726 44.1247 35.3374 43.8782 33.8418C43.6316 32.346 42.9552 30.9543 41.9314 29.8363C41.5817 29.4544 41.6078 28.8614 41.9897 28.5117C42.3716 28.1621 42.9646 28.1881 43.3142 28.57C44.5837 29.9563 45.4224 31.682 45.7282 33.5368C46.0339 35.3915 45.7934 37.295 45.0361 39.0155C44.2788 40.7359 43.0373 42.1989 41.4629 43.226C39.8886 44.253 38.0494 44.7994 36.1697 44.7994C34.2899 44.7994 32.4508 44.253 30.8764 43.226C29.3021 42.1989 28.0606 40.7359 27.3032 39.0155C26.5459 37.295 26.3054 35.3915 26.6112 33.5368C26.9169 31.682 27.7557 29.9563 29.0252 28.57C29.3748 28.1881 29.9678 28.1621 30.3497 28.5117Z" fill="#7A1FA0"/>
<defs>
<filter id="filter0_d_0_1" x="0.669678" y="0.859375" width="71" height="71" filterUnits="userSpaceOnUse" color-interpolation-filters="sRGB">
<feFlood flood-opacity="0" result="BackgroundImageFix"/>
<feColorMatrix in="SourceAlpha" type="matrix" values="0 0 0 0 0 0 0 0 0 0 0 0 0 0 0 0 0 0 127 0" result="hardAlpha"/>
<feOffset/>
<feGaussianBlur stdDeviation="0.25"/>
<feComposite in2="hardAlpha" operator="out"/>
<feColorMatrix type="matrix" values="0 0 0 0 0 0 0 0 0 0 0 0 0 0 0 0 0 0 0.25 0"/>
<feBlend mode="normal" in2="BackgroundImageFix" result="effect1_dropShadow_0_1"/>
<feBlend mode="normal" in="SourceGraphic" in2="effect1_dropShadow_0_1" result="shape"/>
</filter>
</defs>
</svg>
