<svg width="25" height="25" viewBox="0 0 25 25" fill="none" xmlns="http://www.w3.org/2000/svg">
<path d="M10.742 3.17922L3.81196 8.72921C3.03196 9.34921 2.53196 10.6592 2.70196 11.6392L4.03196 19.5992C4.27196 21.0192 5.63195 22.1692 7.07195 22.1692H18.272C19.702 22.1692 21.072 21.0092 21.312 19.5992L22.642 11.6392C22.802 10.6592 22.302 9.34921 21.532 8.72921L14.602 3.18923C13.532 2.32923 11.802 2.32922 10.742 3.17922Z" stroke="black" stroke-width="1.5" stroke-linecap="round" stroke-linejoin="round"/>
<path d="M12.6719 15.8594C14.0526 15.8594 15.1719 14.7401 15.1719 13.3594C15.1719 11.9787 14.0526 10.8594 12.6719 10.8594C11.2912 10.8594 10.1719 11.9787 10.1719 13.3594C10.1719 14.7401 11.2912 15.8594 12.6719 15.8594Z" stroke="#7A1FA0" stroke-width="1.5" stroke-linecap="round" stroke-linejoin="round"/>
</svg>
