<svg width="25" height="25" viewBox="0 0 25 25" fill="none" xmlns="http://www.w3.org/2000/svg">
<path d="M18.2019 8.62937C18.1319 8.61937 18.0619 8.61937 17.9919 8.62937C16.4419 8.57937 15.2119 7.30937 15.2119 5.74937C15.2119 4.15937 16.5019 2.85938 18.1019 2.85938C19.6919 2.85938 20.9919 4.14937 20.9919 5.74937C20.9819 7.30937 19.7519 8.57937 18.2019 8.62937Z" fill="black"/>
<path d="M21.4619 15.5598C20.3419 16.3098 18.7719 16.5898 17.3219 16.3998C17.7019 15.5798 17.9019 14.6698 17.9119 13.7098C17.9119 12.7098 17.6919 11.7598 17.2719 10.9298C18.7519 10.7298 20.3219 11.0098 21.4519 11.7598C23.0319 12.7998 23.0319 14.5098 21.4619 15.5598Z" fill="black"/>
<path d="M7.11194 8.62937C7.18194 8.61937 7.25194 8.61937 7.32194 8.62937C8.87194 8.57937 10.1019 7.30937 10.1019 5.74937C10.1019 4.14937 8.81194 2.85938 7.21194 2.85938C5.62194 2.85938 4.33194 4.14937 4.33194 5.74937C4.33194 7.30937 5.56194 8.57937 7.11194 8.62937Z" fill="black"/>
<path d="M7.22193 13.709C7.22193 14.679 7.43193 15.599 7.81193 16.429C6.40193 16.579 4.93193 16.279 3.85193 15.569C2.27193 14.519 2.27193 12.809 3.85193 11.759C4.92193 11.039 6.43193 10.749 7.85193 10.909C7.44193 11.749 7.22193 12.699 7.22193 13.709Z" fill="black"/>
<path d="M12.7919 16.7294C12.7119 16.7194 12.6219 16.7194 12.5319 16.7294C10.6919 16.6694 9.22192 15.1594 9.22192 13.2994C9.23192 11.3994 10.7619 9.85938 12.6719 9.85938C14.5719 9.85938 16.1119 11.3994 16.1119 13.2994C16.1019 15.1594 14.6419 16.6694 12.7919 16.7294Z" fill="black"/>
<path d="M9.54192 18.799C8.03192 19.809 8.03192 21.469 9.54192 22.469C11.2619 23.619 14.0819 23.619 15.8019 22.469C17.3119 21.459 17.3119 19.799 15.8019 18.799C14.0919 17.649 11.2719 17.649 9.54192 18.799Z" fill="black"/>
</svg>
