<svg width="25" height="25" viewBox="0 0 25 25" fill="none" xmlns="http://www.w3.org/2000/svg">
<path d="M20.7944 23.3594H4.54945C4.24126 23.3525 3.93777 23.2824 3.65781 23.1534C3.37785 23.0244 3.12738 22.8392 2.92195 22.6094C2.71055 22.3794 2.54937 22.1079 2.44865 21.8122C2.34793 21.5165 2.30989 21.2031 2.33695 20.8919C2.51447 18.9066 3.35919 17.04 4.73342 15.5963C6.10765 14.1526 7.93035 13.217 9.90445 12.9419C10.1034 12.916 10.3044 12.9702 10.4633 13.0926C10.6223 13.215 10.7261 13.3954 10.7519 13.5944C10.7778 13.7933 10.7236 13.9943 10.6012 14.1532C10.4789 14.3122 10.2984 14.416 10.0994 14.4419C8.4552 14.6658 6.93621 15.4429 5.79249 16.6452C4.64878 17.8476 3.94851 19.4035 3.80695 21.0569C3.79721 21.1614 3.80954 21.2668 3.84313 21.3663C3.87673 21.4658 3.93083 21.5571 4.00195 21.6344C4.07188 21.7098 4.15657 21.77 4.25075 21.8113C4.34494 21.8526 4.44661 21.874 4.54945 21.8744H20.7944C20.9934 21.8744 21.1841 21.7953 21.3248 21.6547C21.4654 21.514 21.5444 21.3233 21.5444 21.1244C21.5405 21.082 21.5405 21.0393 21.5444 20.9969C21.3913 19.3537 20.6857 17.811 19.5429 16.6205C18.4001 15.43 16.8875 14.662 15.2519 14.4419C15.1535 14.4291 15.0585 14.397 14.9724 14.3475C14.8863 14.2979 14.8108 14.2319 14.7502 14.1532C14.6896 14.0746 14.6451 13.9847 14.6192 13.8888C14.5934 13.7929 14.5866 13.6929 14.5994 13.5944C14.6123 13.4959 14.6443 13.4009 14.6938 13.3148C14.7434 13.2287 14.8094 13.1532 14.8881 13.0926C14.9668 13.032 15.0566 12.9875 15.1525 12.9616C15.2484 12.9358 15.3485 12.9291 15.4469 12.9419C17.4292 13.2148 19.2599 14.1532 20.639 15.6031C22.018 17.053 22.8635 18.9284 23.0369 20.9219V21.1094C23.037 21.7048 22.8009 22.276 22.3806 22.6977C21.9603 23.1194 21.3899 23.3574 20.7944 23.3594Z" fill="black"/>
<path d="M12.6719 15.1094C11.4111 15.1094 10.1785 14.7355 9.13018 14.035C8.08181 13.3345 7.26472 12.3389 6.78221 11.174C6.2997 10.0091 6.17345 8.72731 6.41943 7.49068C6.66541 6.25405 7.27257 5.11813 8.16413 4.22657C9.05569 3.33501 10.1916 2.72785 11.4282 2.48187C12.6649 2.23589 13.9467 2.36214 15.1115 2.84465C16.2764 3.32715 17.2721 4.14425 17.9726 5.19262C18.6731 6.24098 19.0469 7.47352 19.0469 8.73438C19.045 10.4245 18.3727 12.0449 17.1776 13.24C15.9824 14.4351 14.3621 15.1074 12.6719 15.1094ZM12.6719 3.85938C11.7078 3.85938 10.7652 4.14529 9.96353 4.68096C9.16184 5.21664 8.537 5.97801 8.16803 6.8688C7.79905 7.75959 7.70251 8.73979 7.89061 9.68544C8.07871 10.6311 8.54301 11.4997 9.22479 12.1815C9.90657 12.8633 10.7752 13.3276 11.7209 13.5157C12.6665 13.7038 13.6467 13.6073 14.5375 13.2383C15.4283 12.8693 16.1897 12.2445 16.7254 11.4428C17.261 10.6411 17.5469 9.69856 17.5469 8.73438C17.545 7.44206 17.0307 6.20323 16.1169 5.28942C15.2031 4.37561 13.9643 3.86136 12.6719 3.85938Z" fill="black"/>
</svg>
