<svg width="88" height="80" viewBox="0 0 88 80" fill="none" xmlns="http://www.w3.org/2000/svg">
<path d="M28.5947 62.6938L16.6596 69.204C15.9731 69.5868 15.3308 70.0439 14.7441 70.567C21.9447 76.6532 31.0715 79.9866 40.4996 79.9738C50.2415 79.9738 59.1668 76.487 66.1056 70.6998C65.4632 70.1474 64.7568 69.6741 64.0015 69.29L51.2211 62.9006C50.4115 62.4958 49.7307 61.8736 49.2548 61.1037C48.7789 60.3337 48.5268 59.4465 48.5268 58.5413V53.527C48.886 53.118 49.2966 52.5927 49.7358 51.9723C51.4603 49.5216 52.8 46.8218 53.7087 43.9663C55.3479 43.4606 56.5555 41.9466 56.5555 40.1474V34.7949C56.5555 33.6176 56.0317 32.5655 55.2181 31.8289V24.0915C55.2181 24.0915 56.8075 12.0508 40.5011 12.0508C24.1947 12.0508 25.7841 24.0915 25.7841 24.0915V31.8289C25.3654 32.2016 25.0299 32.6584 24.7995 33.1694C24.5691 33.6805 24.4489 34.2343 24.4468 34.7949V40.1474C24.4468 41.5572 25.1879 42.798 26.2973 43.5149C27.6347 49.3368 31.1366 53.527 31.1366 53.527V58.4176C31.1355 59.2928 30.8989 60.1517 30.4517 60.904C30.0044 61.6564 29.363 62.2746 28.5947 62.6938Z" fill="#F6F8FA"/>
<path d="M41.1837 0.122167C19.0961 -0.255191 0.883319 17.3448 0.50596 39.4324C0.291621 51.9561 5.87351 63.212 14.7611 70.6973C15.3422 70.1793 15.9784 69.7268 16.6584 69.3478L28.5935 62.8376C29.3622 62.4182 30.0038 61.7995 30.4508 61.0465C30.8978 60.2935 31.1338 59.4341 31.1339 58.5584V53.6678C31.1339 53.6678 27.6305 49.4776 26.2946 43.6557C25.7293 43.2939 25.2636 42.796 24.9403 42.2077C24.6171 41.6194 24.4464 40.9595 24.4441 40.2882V34.9357C24.4441 33.7584 24.9678 32.7063 25.7814 31.9697V24.2324C25.7814 24.2324 24.192 12.1916 40.4984 12.1916C56.8048 12.1916 55.2154 24.2324 55.2154 24.2324V31.9697C56.0305 32.7063 56.5527 33.7584 56.5527 34.9357V40.2882C56.5527 42.0874 55.3452 43.6014 53.706 44.1071C52.7973 46.9626 51.4576 49.6624 49.7331 52.1131C49.2939 52.7335 48.8833 53.2588 48.5241 53.6678V58.6822C48.5241 60.5282 49.5671 62.2173 51.2184 63.0414L63.9988 69.4308C64.7515 69.8148 65.4559 70.2871 66.0969 70.8376C74.7158 63.6497 80.2841 52.9025 80.4909 40.7999C80.8712 18.7124 63.2727 0.499526 41.1837 0.122167Z" fill="#64748B"/>
<path d="M69.6155 76.0332C69.6155 76.0332 69.6955 76.0332 69.7255 76.0332L72.6555 75.7632C73.0655 75.7232 73.4455 75.5432 73.7355 75.2532L84.7955 64.1932C85.3155 63.6732 85.6055 62.9832 85.6055 62.2532C85.6055 61.5232 85.3155 60.8332 84.7955 60.3132L84.0855 59.6032C83.0455 58.5632 81.2355 58.5632 80.1955 59.6032L78.7855 61.0132L69.1455 70.6532C68.8555 70.9432 68.6755 71.3232 68.6455 71.7332L68.3755 74.6632C68.3455 75.0332 68.4755 75.3932 68.7355 75.6632C68.9755 75.9032 69.2855 76.0332 69.6155 76.0332ZM82.1455 60.2932C82.4655 60.2932 82.7855 60.4132 83.0255 60.6632L83.7355 61.3732C83.9755 61.6132 84.1055 61.9232 84.1055 62.2532C84.1055 62.5832 83.9755 62.9032 83.7355 63.1332L82.8555 64.0132L80.3855 61.5432L81.2655 60.6632C81.5055 60.4232 81.8255 60.2932 82.1455 60.2932ZM70.1355 71.8732C70.1355 71.8132 70.1655 71.7632 70.2055 71.7232L79.3155 62.6032L81.7855 65.0732L72.6755 74.1832C72.6755 74.1832 72.5755 74.2532 72.5255 74.2532L69.8955 74.4932L70.1355 71.8632V71.8732ZM87.6055 79.2232C87.6055 79.6332 87.2655 79.9732 86.8555 79.9732H66.8555C66.4455 79.9732 66.1055 79.6332 66.1055 79.2232C66.1055 78.8132 66.4455 78.4732 66.8555 78.4732H86.8555C87.2655 78.4732 87.6055 78.8132 87.6055 79.2232Z" fill="black"/>
</svg>
