<svg width="51" height="51" viewBox="0 0 51 51" fill="none" xmlns="http://www.w3.org/2000/svg">
<g clip-path="url(#clip0_2010_4833)">
<path d="M26.3915 7.35176V6.0998C26.3915 5.6957 26.064 5.36816 25.6599 5.36816C25.2558 5.36816 24.9282 5.6957 24.9282 6.0998V7.35176C24.9282 7.75586 25.2558 8.0834 25.6599 8.0834C26.064 8.0834 26.3915 7.75586 26.3915 7.35176Z" fill="#EBDDF1"/>
<path d="M24.9282 44.5578V45.8098C24.9282 46.2139 25.2558 46.5414 25.6599 46.5414C26.064 46.5414 26.3915 46.2139 26.3915 45.8098V44.5578C26.3915 44.1537 26.064 43.8262 25.6599 43.8262C25.2558 43.8263 24.9282 44.1537 24.9282 44.5578Z" fill="#EBDDF1"/>
<path d="M19.2971 9.20546C19.3802 9.20546 19.4647 9.1912 19.5473 9.16112C19.927 9.02284 20.1228 8.60311 19.9846 8.22333L19.5565 7.04696C19.4183 6.66727 18.9982 6.47157 18.6188 6.60975C18.2391 6.74794 18.0433 7.16776 18.1815 7.54755L18.6096 8.72391C18.7177 9.02108 18.9982 9.20546 19.2971 9.20546Z" fill="#EBDDF1"/>
<path d="M31.7721 42.7483C31.3925 42.8865 31.1967 43.3064 31.3348 43.6861L31.763 44.8625C31.8712 45.1596 32.1516 45.344 32.4506 45.344C32.5337 45.344 32.6181 45.3298 32.7008 45.2998C33.0804 45.1615 33.2762 44.7418 33.1381 44.362L32.7099 43.1856C32.5716 42.8059 32.1515 42.6104 31.7721 42.7483Z" fill="#EBDDF1"/>
<path d="M13.7022 12.4359C13.8681 12.4359 14.035 12.3797 14.1721 12.2647C14.4817 12.005 14.522 11.5435 14.2622 11.2339L13.4576 10.2749C13.1979 9.96545 12.7364 9.92522 12.4269 10.1848C12.1173 10.4445 12.077 10.906 12.3368 11.2156L13.1414 12.1745C13.2861 12.347 13.4934 12.4359 13.7022 12.4359Z" fill="#EBDDF1"/>
<path d="M37.1471 39.6449C36.8375 39.9045 36.7972 40.3661 37.057 40.6756L37.8617 41.6346C38.0064 41.8071 38.2136 41.8959 38.4225 41.8959C38.5884 41.8959 38.7553 41.8398 38.8924 41.7247C39.202 41.4651 39.2423 41.0036 38.9826 40.694L38.1779 39.735C37.9181 39.4254 37.4566 39.3851 37.1471 39.6449Z" fill="#EBDDF1"/>
<path d="M9.91514 16.02L8.83096 15.3941C8.48096 15.192 8.0336 15.3118 7.83155 15.6618C7.6295 16.0117 7.74942 16.4592 8.09932 16.6613L9.1835 17.2872C9.29873 17.3537 9.42452 17.3854 9.54864 17.3854C9.80147 17.3854 10.0474 17.2542 10.1829 17.0195C10.385 16.6696 10.265 16.2221 9.91514 16.02Z" fill="#EBDDF1"/>
<path d="M43.2203 35.2486L42.1361 34.6226C41.7861 34.4205 41.3388 34.5404 41.1367 34.8904C40.9347 35.2403 41.0546 35.6877 41.4045 35.8898L42.4887 36.5157C42.6039 36.5823 42.7297 36.6139 42.8538 36.6139C43.1066 36.6139 43.3525 36.4827 43.4881 36.248C43.6901 35.8981 43.5702 35.4506 43.2203 35.2486Z" fill="#EBDDF1"/>
<path d="M6.23378 21.7867C5.83603 21.7163 5.45644 21.9823 5.38622 22.38C5.31611 22.7781 5.58183 23.1575 5.97968 23.2276L7.21259 23.445C7.25556 23.4526 7.29824 23.4562 7.34052 23.4562C7.68886 23.4562 7.99755 23.2064 8.06015 22.8516C8.13036 22.4536 7.86454 22.0742 7.46669 22.0041L6.23378 21.7867Z" fill="#EBDDF1"/>
<path d="M45.0856 30.1228C45.1286 30.1304 45.1713 30.134 45.2136 30.134C45.5619 30.134 45.8706 29.8842 45.9332 29.5294C46.0033 29.1314 45.7376 28.752 45.3397 28.6819L44.1068 28.4645C43.7091 28.3938 43.3295 28.6601 43.2593 29.0579C43.1892 29.4558 43.4549 29.8353 43.8527 29.9054L45.0856 30.1228Z" fill="#EBDDF1"/>
<path d="M5.38625 29.5294C5.44885 29.8844 5.75754 30.134 6.10588 30.134C6.14806 30.134 6.19084 30.1304 6.23381 30.1228L7.46672 29.9054C7.86467 29.8353 8.13039 29.4559 8.06017 29.0578C7.99006 28.6599 7.61076 28.3939 7.21262 28.4645L5.97971 28.6819C5.58185 28.7521 5.31603 29.1315 5.38625 29.5294Z" fill="#EBDDF1"/>
<path d="M45.9332 22.3801C45.8631 21.9821 45.4837 21.7163 45.0857 21.7867L43.8528 22.0041C43.4548 22.0742 43.1891 22.4536 43.2593 22.8516C43.3219 23.2066 43.6306 23.4562 43.9789 23.4562C44.0211 23.4562 44.0639 23.4526 44.1069 23.445L45.3398 23.2276C45.7377 23.1575 46.0034 22.7781 45.9332 22.3801Z" fill="#EBDDF1"/>
<path d="M8.46582 36.6138C8.58994 36.6138 8.71573 36.5822 8.83096 36.5157L9.91514 35.8897C10.265 35.6877 10.385 35.2402 10.1829 34.8903C9.98086 34.5404 9.5334 34.4206 9.1835 34.6225L8.09932 35.2485C7.74942 35.4505 7.6295 35.898 7.83155 36.2479C7.96709 36.4827 8.21299 36.6138 8.46582 36.6138Z" fill="#EBDDF1"/>
<path d="M42.4887 15.394L41.4045 16.02C41.0546 16.2221 40.9347 16.6695 41.1367 17.0194C41.2723 17.2542 41.5182 17.3853 41.771 17.3853C41.8951 17.3853 42.0209 17.3537 42.1361 17.2872L43.2203 16.6612C43.5702 16.4592 43.6901 16.0117 43.4881 15.6618C43.286 15.3118 42.8386 15.1921 42.4887 15.394Z" fill="#EBDDF1"/>
<path d="M13.1414 39.7351L12.3368 40.6941C12.077 41.0035 12.1173 41.4652 12.4269 41.7248C12.564 41.8399 12.7308 41.896 12.8968 41.896C13.1056 41.896 13.3129 41.8072 13.4577 41.6347L14.2623 40.6757C14.5221 40.3662 14.4818 39.9046 14.1722 39.6449C13.8625 39.385 13.4011 39.4255 13.1414 39.7351Z" fill="#EBDDF1"/>
<path d="M37.6169 12.436C37.8257 12.436 38.033 12.3471 38.1778 12.1747L38.9825 11.2157C39.2422 10.9062 39.2019 10.4446 38.8923 10.1849C38.5828 9.92505 38.1213 9.96557 37.8617 10.275L37.057 11.234C36.7972 11.5435 36.8375 12.0051 37.1471 12.2648C37.2841 12.3798 37.4509 12.436 37.6169 12.436Z" fill="#EBDDF1"/>
<path d="M18.6096 43.1856L18.1815 44.362C18.0433 44.7417 18.2391 45.1615 18.6188 45.2998C18.7014 45.3298 18.7859 45.344 18.869 45.344C19.1678 45.344 19.4484 45.1595 19.5566 44.8625L19.9847 43.6861C20.1229 43.3064 19.9271 42.8866 19.5474 42.7483C19.1677 42.6103 18.7478 42.806 18.6096 43.1856Z" fill="#EBDDF1"/>
<path d="M32.0222 9.2054C32.3211 9.2054 32.6016 9.02083 32.7098 8.72386L33.138 7.5475C33.2761 7.16781 33.0803 6.74798 32.7007 6.6097C32.321 6.47162 31.9011 6.66732 31.763 7.04691L31.3348 8.22328C31.1967 8.60296 31.3925 9.02279 31.7721 9.16107C31.8547 9.19115 31.9392 9.2054 32.0222 9.2054Z" fill="#EBDDF1"/>
<path d="M49.6498 22.5727C49.3348 21.902 49.0371 21.2685 48.8967 20.6507C48.7483 19.9982 48.74 19.2779 48.7313 18.5152C48.718 17.3638 48.7042 16.1734 48.1886 15.1047C47.6633 14.0157 46.7324 13.2592 45.8322 12.5277C45.2484 12.0532 44.697 11.605 44.2911 11.0967C43.8813 10.5837 43.5645 9.94322 43.2289 9.2652C42.7161 8.22897 42.1858 7.15729 41.2478 6.40836C40.3145 5.66305 39.1542 5.38356 38.0321 5.11315C37.2941 4.93541 36.5971 4.76744 36.001 4.47985C35.4226 4.20084 34.8674 3.76647 34.2795 3.3066C33.362 2.58883 32.4133 1.84664 31.2229 1.57594C30.0802 1.31637 28.9243 1.56627 27.8064 1.80797C27.0528 1.97106 26.341 2.12496 25.6596 2.12496C24.9781 2.12496 24.2664 1.97106 23.5127 1.80797C22.3948 1.56627 21.2389 1.31617 20.0962 1.57594C18.9059 1.84655 17.9571 2.58873 17.0396 3.3066C16.4519 3.76647 15.8967 4.20084 15.3182 4.47985C14.722 4.76744 14.0249 4.93541 13.2869 5.11315C12.1648 5.38346 11.0046 5.66295 10.0712 6.40826C9.1332 7.15729 8.60293 8.22887 8.09014 9.2651C7.75459 9.94313 7.4377 10.5836 7.02793 11.0967C6.62207 11.6049 6.0707 12.0531 5.48691 12.5275C4.58672 13.2591 3.65586 14.0157 3.13057 15.1046C2.61494 16.1733 2.60117 17.3639 2.58789 18.5152C2.5791 19.2779 2.5708 19.9982 2.42246 20.6507C2.28203 21.2685 1.98438 21.902 1.66934 22.5727C1.17305 23.6296 0.659668 24.7222 0.659668 25.9546C0.659668 27.1869 1.17305 28.2796 1.66953 29.3364C1.98457 30.0071 2.28223 30.6406 2.42266 31.2584C2.571 31.9108 2.5793 32.6312 2.58809 33.3938C2.60137 34.5451 2.61514 35.7356 3.13076 36.8044C3.65605 37.8932 4.58691 38.6497 5.48711 39.3813C6.0709 39.8558 6.62236 40.304 7.02783 40.8117C7.0457 40.8341 7.06348 40.8568 7.08105 40.8797C7.32744 41.2002 7.78672 41.26 8.10693 41.0137C8.42725 40.7673 8.48721 40.3081 8.24092 39.9878C8.21816 39.9583 8.19521 39.9289 8.17158 39.8993C7.66748 39.2679 7.02812 38.7483 6.40986 38.246C5.59844 37.5866 4.83213 36.9637 4.44854 36.1687C4.07441 35.3933 4.06318 34.4139 4.05117 33.3769C4.04189 32.5714 4.03223 31.7383 3.84941 30.9341C3.67383 30.1619 3.32812 29.4259 2.99375 28.7142C2.5458 27.7608 2.12275 26.8603 2.12275 25.9546C2.12275 25.0488 2.5458 24.1483 2.99375 23.1949C3.32812 22.4832 3.67383 21.7473 3.84941 20.975C4.03223 20.1708 4.04189 19.3377 4.05117 18.5322C4.06318 17.4953 4.07451 16.5159 4.44863 15.7403C4.83213 14.9453 5.59863 14.3225 6.40996 13.663C7.02812 13.1606 7.66738 12.6412 8.17158 12.0097C8.67949 11.3737 9.04668 10.6317 9.40176 9.91403C9.86396 8.97994 10.3006 8.09772 10.9844 7.55172C11.6636 7.00944 12.6186 6.77936 13.6297 6.53571C14.4101 6.34772 15.217 6.15328 15.954 5.79772C16.6742 5.45026 17.3184 4.94635 17.9413 4.45905C18.7684 3.81207 19.5496 3.20094 20.4206 3.00289C21.2467 2.815 22.1972 3.02067 23.2033 3.23824C23.9989 3.41041 24.8217 3.58834 25.6595 3.58834C26.4973 3.58834 27.32 3.41041 28.1156 3.23824C29.1218 3.02067 30.0722 2.8151 30.8983 3.00289C31.7693 3.20094 32.5506 3.81207 33.3777 4.45914C34.0007 4.94645 34.6448 5.45035 35.365 5.79782C36.1021 6.15348 36.909 6.34791 37.6893 6.5358C38.7004 6.77936 39.6555 7.00944 40.3347 7.55182C41.0186 8.09801 41.4551 8.98014 41.9173 9.91422C42.2724 10.6317 42.6396 11.3737 43.1475 12.0098C43.6516 12.6413 44.2909 13.1608 44.9092 13.6633C45.7205 14.3227 46.4869 14.9456 46.8704 15.7406C47.2445 16.516 47.2558 17.4954 47.2678 18.5323C47.2771 19.338 47.2867 20.171 47.4695 20.9752C47.6451 21.7474 47.9908 22.4834 48.3252 23.1951C48.7731 24.1485 49.1962 25.049 49.1962 25.9548C49.1962 26.8604 48.7731 27.7609 48.3252 28.7144C47.9908 29.426 47.6451 30.1621 47.4695 30.9343C47.2867 31.7385 47.2771 32.5715 47.2678 33.3771C47.2558 34.414 47.2444 35.3934 46.8703 36.169C46.4868 36.9638 45.7204 37.5867 44.9091 38.2462C44.2908 38.7487 43.6516 39.2682 43.1474 39.8996C42.6395 40.5356 42.2723 41.2777 41.9172 41.9952C41.455 42.9293 41.0184 43.8115 40.3346 44.3576C39.6553 44.8999 38.7002 45.1299 37.6891 45.3736C36.9088 45.5616 36.102 45.7559 35.3649 46.1115C34.6447 46.459 34.0007 46.9629 33.3778 47.4502C32.5507 48.0972 31.7695 48.7085 30.8983 48.9064C30.0721 49.0942 29.1217 48.8886 28.1155 48.6711C27.3199 48.499 26.4972 48.3211 25.6594 48.3211C24.8216 48.3211 23.9988 48.499 23.2032 48.6711C22.1971 48.8887 21.2469 49.0943 20.4204 48.9064C19.5493 48.7085 18.7681 48.0972 17.941 47.4502C17.3182 46.9629 16.674 46.459 15.9539 46.1115C15.2168 45.7559 14.4099 45.5615 13.6296 45.3735C12.6186 45.1299 11.6635 44.8999 10.9844 44.3576C10.6243 44.0701 10.2992 43.6616 9.96123 43.072C9.76025 42.7215 9.31318 42.6004 8.9627 42.8012C8.61211 43.0022 8.49082 43.4493 8.69189 43.7999C9.12441 44.5543 9.5627 45.0949 10.0713 45.501C11.0046 46.2462 12.1648 46.5256 13.2869 46.7961C14.0249 46.9738 14.722 47.1418 15.3182 47.4294C15.8965 47.7084 16.4517 48.1427 17.0395 48.6026C17.9569 49.3204 18.9058 50.0627 20.0962 50.3333C21.239 50.593 22.3949 50.343 23.5127 50.1012C24.2663 49.9382 24.9781 49.7842 25.6595 49.7842C26.3408 49.7842 27.0527 49.9381 27.8062 50.1012C28.588 50.2703 29.3882 50.4434 30.1896 50.4434C30.5342 50.4434 30.8792 50.4114 31.2228 50.3333C32.4132 50.0628 33.362 49.3205 34.2795 48.6026C34.8673 48.1427 35.4225 47.7084 36.0008 47.4294C36.5969 47.1419 37.2938 46.9739 38.0317 46.7962C39.1539 46.5259 40.3143 46.2463 41.2477 45.5009C42.1856 44.752 42.7159 43.6804 43.2287 42.6441C43.5643 41.9661 43.8812 41.3256 44.2908 40.8126C44.6967 40.3043 45.2481 39.8561 45.8319 39.3816C46.7321 38.6501 47.6629 37.8936 48.1882 36.8047C48.7038 35.736 48.7176 34.5454 48.7309 33.3941C48.7396 32.6314 48.7479 31.9111 48.8963 31.2587C49.0367 30.6409 49.3344 30.0074 49.6494 29.3367C50.1463 28.2796 50.6597 27.1868 50.6597 25.9546C50.6597 24.7222 50.1463 23.6296 49.6498 22.5727Z" fill="#EBDDF1"/>
<path d="M25.6598 42.4367C34.7482 42.4367 42.1423 35.0428 42.1423 25.9542C42.1423 24.4674 41.9441 22.9933 41.5535 21.5729C41.4464 21.1832 41.0436 20.9546 40.654 21.0615C40.2645 21.1687 40.0354 21.5714 40.1427 21.961C40.4986 23.255 40.6791 24.5984 40.6791 25.9542C40.6791 34.2358 33.9415 40.9734 25.6599 40.9734C17.3782 40.9734 10.6405 34.2358 10.6405 25.9542C10.6405 17.6726 17.3781 10.935 25.6598 10.935C31.2439 10.935 36.3354 14.0046 38.9473 18.946C39.136 19.3032 39.5787 19.4397 39.936 19.251C40.2933 19.0622 40.4298 18.6194 40.2409 18.2622C37.3749 12.8401 31.7878 9.47168 25.6598 9.47168C16.5713 9.47168 9.17725 16.8656 9.17725 25.9542C9.17725 35.0428 16.5713 42.4367 25.6598 42.4367Z" fill="#EBDDF1"/>
<path d="M30.5215 15.4829C29.4468 14.5405 27.8057 14.6482 26.8633 15.7226L24.5407 18.3708L24.3635 18.1889C23.3656 17.1652 21.7211 17.1444 20.6978 18.1418C19.6741 19.1395 19.653 20.784 20.6507 21.8076L22.7848 23.9974C23.2698 24.4949 23.9464 24.7802 24.641 24.7802C24.663 24.7802 24.6852 24.7798 24.7092 24.7792C25.4295 24.7604 26.115 24.4389 26.59 23.8972L30.7611 19.1412C31.7036 18.0665 31.5961 16.4254 30.5215 15.4829ZM29.661 18.1764L25.4899 22.9323C25.2831 23.1682 24.9845 23.3082 24.6728 23.3164L24.641 23.3169C24.3385 23.3169 24.0437 23.1926 23.8325 22.976L21.6985 20.7864C21.264 20.3405 21.2732 19.6241 21.719 19.1897C21.9382 18.976 22.2226 18.8697 22.5068 18.8697C22.8008 18.8697 23.0946 18.9835 23.3156 19.2101L24.0451 19.9585C24.1875 20.1046 24.3834 20.1857 24.5883 20.1792C24.7922 20.1739 24.9846 20.0837 25.119 19.9303L27.9633 16.6873C28.3737 16.2192 29.0886 16.1726 29.5565 16.5829C30.0247 16.9935 30.0716 17.7082 29.661 18.1764Z" fill="#EBDDF1"/>
<path d="M23.8554 26.8213C23.7208 26.4937 23.4051 26.2822 23.051 26.2822C23.0507 26.2822 23.0504 26.2822 23.0501 26.2822C22.6957 26.2826 22.3799 26.4948 22.2458 26.823C22.2435 26.8285 22.2414 26.8339 22.2392 26.8396L19.948 32.8554C19.8042 33.2329 19.9937 33.6556 20.3714 33.7994C20.7491 33.9434 21.1717 33.7538 21.3155 33.3761L21.7066 32.349H24.3779L24.7647 33.374C24.8754 33.667 25.1537 33.8475 25.4494 33.8475C25.5352 33.8475 25.6225 33.8322 25.7076 33.8001C26.0856 33.6575 26.2764 33.2354 26.1338 32.8573L23.8634 26.8412C23.8608 26.8346 23.8582 26.8279 23.8554 26.8213ZM22.2638 30.8857L23.0483 28.826L23.8257 30.8857H22.2638Z" fill="#EBDDF1"/>
<path d="M27.8589 27.0139V33.1157C27.8589 33.5198 28.1864 33.8474 28.5905 33.8474C28.9946 33.8474 29.3222 33.5198 29.3222 33.1157V27.0139C29.3222 26.6098 28.9946 26.2822 28.5905 26.2822C28.1864 26.2822 27.8589 26.6098 27.8589 27.0139Z" fill="#EBDDF1"/>
<path d="M31.1803 33.1005C31.1811 33.2993 31.2606 33.4896 31.4018 33.6297C31.5422 33.769 31.732 33.8473 31.9298 33.8473H31.9326C31.9846 33.8471 33.2095 33.8424 33.6988 33.8338C35.5158 33.8021 36.8347 32.217 36.8347 30.0647C36.8347 27.8022 35.549 26.2822 33.6355 26.2822H31.9175C31.7185 26.2822 31.5276 26.3613 31.387 26.5022C31.2464 26.6431 31.1676 26.8341 31.168 27.033C31.168 27.0331 31.1724 29.3663 31.1724 30.058C31.1724 30.9014 31.1803 33.1005 31.1803 33.1005ZM33.6355 27.7812C34.8891 27.7812 35.3356 28.9607 35.3356 30.0647C35.3356 31.613 34.5004 32.3206 33.6727 32.3351C33.444 32.3391 33.0391 32.3423 32.6768 32.3445C32.6745 31.6277 32.6714 30.5814 32.6714 30.0581C32.6714 29.6206 32.6696 28.5271 32.6684 27.7813L33.6355 27.7812Z" fill="#EBDDF1"/>
<path d="M15.2839 26.2822C15.2116 26.2822 15.1399 26.2933 15.0706 26.314C14.8539 26.379 14.6841 26.5371 14.6022 26.7454C14.5687 26.8308 14.5522 26.9222 14.5522 27.0139V33.1157C14.5522 33.5198 14.8798 33.8474 15.2839 33.8474C15.688 33.8474 16.0155 33.5198 16.0155 33.1157V31.193C16.3654 31.1911 16.7585 31.1895 16.9829 31.1895C18.3544 31.1895 19.4701 30.0888 19.4701 28.7358C19.4701 27.3829 18.3544 26.2822 16.9829 26.2822H15.2839ZM18.0069 28.7357C18.0069 29.2726 17.538 29.7261 16.9829 29.7261C16.7601 29.7261 16.3718 29.7278 16.0232 29.7296C16.0214 29.3695 16.0197 28.9646 16.0197 28.7357C16.0197 28.542 16.0187 28.1223 16.0177 27.7454H16.9829C17.538 27.7454 18.0069 28.199 18.0069 28.7357Z" fill="#EBDDF1"/>
</g>
<defs>
<clipPath id="clip0_2010_4833">
<rect width="50" height="50" fill="white" transform="translate(0.659668 0.954102)"/>
</clipPath>
</defs>
</svg>
