<svg width="50" height="51" viewBox="0 0 50 51" fill="none" xmlns="http://www.w3.org/2000/svg">
<path d="M18.7456 3.59082H19.5269C19.7341 3.59082 19.9328 3.50851 20.0793 3.362C20.2258 3.21548 20.3081 3.01677 20.3081 2.80957C20.3081 2.60237 20.2258 2.40366 20.0793 2.25714C19.9328 2.11063 19.7341 2.02832 19.5269 2.02832H18.7456C18.5384 2.02832 18.3397 2.11063 18.1932 2.25714C18.0467 2.40366 17.9644 2.60237 17.9644 2.80957C17.9644 3.01677 18.0467 3.21548 18.1932 3.362C18.3397 3.50851 18.5384 3.59082 18.7456 3.59082Z" fill="#EBDDF1"/>
<path d="M44.4722 2.02838H22.1033C21.8961 2.02838 21.6974 2.11069 21.5509 2.25721C21.4044 2.40372 21.3221 2.60243 21.3221 2.80963C21.3221 3.01684 21.4044 3.21555 21.5509 3.36206C21.6974 3.50857 21.8961 3.59088 22.1033 3.59088H44.4722C45.1008 3.5844 45.7063 3.82751 46.156 4.26688C46.6056 4.70626 46.8626 5.30603 46.8706 5.93464V16.8721C46.8626 17.5007 46.6056 18.1005 46.156 18.5399C45.7063 18.9793 45.1008 19.2224 44.4722 19.2159H7.9042C7.77033 19.2158 7.6387 19.2502 7.52201 19.3158L3.12061 21.7878V5.93464C3.12862 5.30603 3.38563 4.70626 3.83525 4.26688C4.28488 3.82751 4.89042 3.5844 5.51904 3.59088H15.6206C15.8278 3.59088 16.0265 3.50857 16.173 3.36206C16.3195 3.21555 16.4019 3.01684 16.4019 2.80963C16.4019 2.60243 16.3195 2.40372 16.173 2.25721C16.0265 2.11069 15.8278 2.02838 15.6206 2.02838H5.51904C4.47617 2.02241 3.47351 2.4303 2.73096 3.16259C1.98842 3.89488 1.56663 4.89178 1.55811 5.93464V23.1221C1.55811 23.2585 1.59378 23.3924 1.66158 23.5107C1.72938 23.6289 1.82694 23.7274 1.94458 23.7963C2.06221 23.8652 2.19583 23.9021 2.33214 23.9033C2.46846 23.9046 2.60273 23.8702 2.72162 23.8035L8.10873 20.7784H44.4722C45.515 20.7844 46.5177 20.3765 47.2602 19.6442C48.0028 18.9119 48.4246 17.915 48.4331 16.8721V5.93464C48.4246 4.89178 48.0028 3.89488 47.2602 3.16259C46.5177 2.4303 45.515 2.02241 44.4722 2.02838Z" fill="#EBDDF1"/>
<path d="M12.4214 6.38397C12.3584 6.24962 12.2584 6.13601 12.1332 6.05642C12.0079 5.97684 11.8626 5.93457 11.7142 5.93457C11.5658 5.93457 11.4204 5.97684 11.2952 6.05642C11.1699 6.13601 11.0699 6.24962 11.0069 6.38397L9.73511 9.0924L6.90839 9.52498C6.76649 9.54675 6.63333 9.6072 6.52354 9.69968C6.41374 9.79217 6.33155 9.91312 6.28599 10.0493C6.24043 10.1854 6.23326 10.3315 6.26528 10.4714C6.29729 10.6113 6.36724 10.7398 6.46745 10.8426L8.53573 12.962L8.04597 15.965C8.02238 16.1097 8.03999 16.2581 8.09678 16.3933C8.15357 16.5284 8.24724 16.6449 8.3671 16.7293C8.48696 16.8138 8.62816 16.8628 8.77455 16.8708C8.92095 16.8787 9.06663 16.8454 9.19495 16.7744L11.7142 15.3821L14.2334 16.7744C14.3617 16.8455 14.5075 16.879 14.6539 16.871C14.8004 16.8631 14.9417 16.814 15.0615 16.7294C15.1813 16.6449 15.2749 16.5284 15.3317 16.3932C15.3885 16.2581 15.4061 16.1097 15.3827 15.965L14.8929 12.962L16.9612 10.8426C17.0614 10.7398 17.1314 10.6113 17.1634 10.4714C17.1954 10.3315 17.1882 10.1854 17.1427 10.0493C17.0971 9.91312 17.0149 9.79217 16.9051 9.69968C16.7953 9.6072 16.6622 9.54675 16.5203 9.52498L13.6935 9.0924L12.4214 6.38397ZM13.4987 12.1533C13.4133 12.2408 13.3496 12.3472 13.3127 12.4638C13.2759 12.5804 13.2669 12.704 13.2866 12.8247L13.581 14.6294L12.0918 13.8062C11.9763 13.7421 11.8463 13.7085 11.7142 13.7085C11.582 13.7085 11.4521 13.7421 11.3365 13.8062L9.84698 14.629L10.1414 12.8244C10.1611 12.7037 10.1521 12.58 10.1153 12.4634C10.0785 12.3468 10.0148 12.2405 9.92933 12.153L8.64761 10.8392L10.3833 10.5736C10.5101 10.5542 10.6302 10.504 10.7329 10.4272C10.8356 10.3504 10.9179 10.2495 10.9723 10.1333L11.7142 8.55451L12.4557 10.1338C12.5102 10.2499 12.5924 10.3509 12.6951 10.4276C12.7979 10.5044 12.9179 10.5547 13.0447 10.574L14.7804 10.8397L13.4987 12.1533Z" fill="#EBDDF1"/>
<path d="M30.4237 10.0491C30.3781 9.913 30.2959 9.79207 30.1861 9.6996C30.0763 9.60714 29.9431 9.54672 29.8012 9.52498L26.9745 9.0924L25.7027 6.38397C25.6397 6.24962 25.5397 6.13601 25.4144 6.05642C25.2892 5.97684 25.1438 5.93457 24.9954 5.93457C24.847 5.93457 24.7017 5.97684 24.5764 6.05642C24.4512 6.13601 24.3512 6.24962 24.2882 6.38397L23.0164 9.0924L20.1896 9.52498C20.0477 9.54675 19.9146 9.6072 19.8048 9.69968C19.695 9.79217 19.6128 9.91312 19.5672 10.0493C19.5217 10.1854 19.5145 10.3315 19.5465 10.4714C19.5785 10.6113 19.6485 10.7398 19.7487 10.8426L21.817 12.962L21.3272 15.965C21.3036 16.1097 21.3212 16.2581 21.378 16.3933C21.4348 16.5284 21.5285 16.6449 21.6483 16.7293C21.7682 16.8138 21.9094 16.8628 22.0558 16.8708C22.2022 16.8787 22.3479 16.8454 22.4762 16.7744L24.9954 15.3821L27.5146 16.7744C27.643 16.8455 27.7887 16.879 27.9352 16.871C28.0816 16.8631 28.2229 16.814 28.3428 16.7294C28.4625 16.6449 28.5561 16.5284 28.6129 16.3932C28.6697 16.2581 28.6874 16.1097 28.6639 15.965L28.1742 12.962L30.2425 10.8426C30.3427 10.7398 30.4127 10.6113 30.4447 10.4713C30.4766 10.3313 30.4694 10.1853 30.4237 10.0491ZM26.78 12.1533C26.6945 12.2408 26.6308 12.3472 26.594 12.4638C26.5571 12.5804 26.5482 12.704 26.5678 12.8247L26.8623 14.6294L25.3731 13.8062C25.2575 13.7421 25.1276 13.7085 24.9954 13.7085C24.8633 13.7085 24.7333 13.7421 24.6178 13.8062L23.1282 14.629L23.4227 12.8244C23.4423 12.7037 23.4334 12.58 23.3965 12.4634C23.3597 12.3468 23.296 12.2405 23.2106 12.153L21.9289 10.8392L23.6646 10.5736C23.7913 10.5542 23.9114 10.504 24.0141 10.4272C24.1169 10.3504 24.1991 10.2495 24.2535 10.1333L24.9954 8.55451L25.737 10.1338C25.7914 10.2499 25.8737 10.3509 25.9764 10.4276C26.0791 10.5044 26.1992 10.5547 26.326 10.574L28.0617 10.8397L26.78 12.1533Z" fill="#EBDDF1"/>
<path d="M43.705 10.0491C43.6594 9.913 43.5772 9.79207 43.4673 9.6996C43.3575 9.60714 43.2244 9.54672 43.0825 9.52498L40.2557 9.0924L38.9839 6.38397C38.9209 6.24962 38.8209 6.13601 38.6957 6.05642C38.5704 5.97684 38.4251 5.93457 38.2767 5.93457C38.1283 5.93457 37.9829 5.97684 37.8577 6.05642C37.7324 6.13601 37.6324 6.24962 37.5694 6.38397L36.2976 9.0924L33.4709 9.52498C33.329 9.54675 33.1958 9.6072 33.086 9.69968C32.9762 9.79217 32.8941 9.91312 32.8485 10.0493C32.8029 10.1854 32.7958 10.3315 32.8278 10.4714C32.8598 10.6113 32.9297 10.7398 33.03 10.8426L35.0982 12.962L34.6085 15.965C34.5849 16.1097 34.6025 16.2581 34.6593 16.3933C34.7161 16.5284 34.8097 16.6449 34.9296 16.7293C35.0495 16.8138 35.1907 16.8628 35.3371 16.8708C35.4834 16.8787 35.6291 16.8454 35.7575 16.7744L38.2767 15.3821L40.7959 16.7744C40.9242 16.8455 41.07 16.879 41.2164 16.871C41.3629 16.8631 41.5042 16.814 41.624 16.7294C41.7438 16.6449 41.8374 16.5284 41.8942 16.3932C41.951 16.2581 41.9686 16.1097 41.9452 15.965L41.4554 12.962L43.5237 10.8426C43.624 10.7398 43.6939 10.6113 43.7259 10.4713C43.7579 10.3313 43.7506 10.1853 43.705 10.0491ZM40.0612 12.1533C39.9758 12.2408 39.9121 12.3472 39.8752 12.4638C39.8384 12.5804 39.8294 12.704 39.8491 12.8247L40.1435 14.6294L38.6543 13.8062C38.5388 13.7421 38.4088 13.7085 38.2767 13.7085C38.1445 13.7085 38.0146 13.7421 37.899 13.8062L36.4095 14.629L36.7039 12.8244C36.7236 12.7037 36.7146 12.58 36.6778 12.4634C36.641 12.3468 36.5773 12.2405 36.4918 12.153L35.2101 10.8392L36.9458 10.5736C37.0726 10.5542 37.1927 10.504 37.2954 10.4272C37.3981 10.3504 37.4804 10.2495 37.5348 10.1333L38.2767 8.55451L39.0182 10.1338C39.0727 10.2499 39.1549 10.3509 39.2576 10.4276C39.3604 10.5044 39.4804 10.5547 39.6072 10.574L41.3429 10.8397L40.0612 12.1533Z" fill="#EBDDF1"/>
<path d="M13.2937 44.2159H5.51904C4.89042 44.2224 4.28488 43.9793 3.83525 43.5399C3.38563 43.1005 3.12862 42.5007 3.12061 41.8721V30.9346C3.12862 30.306 3.38563 29.7063 3.83525 29.2669C4.28488 28.8275 4.89042 28.5844 5.51904 28.5909H37.4956C37.7028 28.5909 37.9015 28.5086 38.048 28.3621C38.1945 28.2155 38.2769 28.0168 38.2769 27.8096C38.2769 27.6024 38.1945 27.4037 38.048 27.2572C37.9015 27.1107 37.7028 27.0284 37.4956 27.0284H5.51904C4.47617 27.0224 3.47351 27.4303 2.73096 28.1626C1.98842 28.8949 1.56663 29.8918 1.55811 30.9346V41.8721C1.56663 42.915 1.98842 43.9119 2.73096 44.6442C3.47351 45.3765 4.47617 45.7844 5.51904 45.7784H13.2934C13.5006 45.7784 13.6993 45.6961 13.8458 45.5496C13.9924 45.403 14.0747 45.2043 14.0747 44.9971C14.0747 44.7899 13.9924 44.5912 13.8458 44.4447C13.6993 44.2982 13.5009 44.2159 13.2937 44.2159Z" fill="#EBDDF1"/>
<path d="M17.0664 44.2158H15.7373C15.5301 44.2158 15.3314 44.2981 15.1849 44.4446C15.0384 44.5912 14.9561 44.7899 14.9561 44.9971C14.9561 45.2043 15.0384 45.403 15.1849 45.5495C15.3314 45.696 15.5301 45.7783 15.7373 45.7783H17.0664C17.2736 45.7783 17.4723 45.696 17.6188 45.5495C17.7653 45.403 17.8476 45.2043 17.8476 44.9971C17.8476 44.7899 17.7653 44.5912 17.6188 44.4446C17.4723 44.2981 17.2736 44.2158 17.0664 44.2158Z" fill="#EBDDF1"/>
<path d="M46.5151 28.4177C46.3518 28.5452 46.2459 28.7323 46.2206 28.9379C46.1953 29.1435 46.2526 29.3507 46.3801 29.514C46.6989 29.9188 46.8717 30.4194 46.8706 30.9347V46.7878L42.4692 44.3158C42.3525 44.2502 42.2209 44.2158 42.087 44.2159H19.5269C19.3197 44.2159 19.1209 44.2982 18.9744 44.4447C18.8279 44.5912 18.7456 44.79 18.7456 44.9972C18.7456 45.2044 18.8279 45.4031 18.9744 45.5496C19.1209 45.6961 19.3197 45.7784 19.5269 45.7784H41.8825L47.2696 48.8035C47.3885 48.8702 47.5228 48.9046 47.6591 48.9034C47.7954 48.9021 47.929 48.8652 48.0466 48.7963C48.1643 48.7274 48.2618 48.629 48.3296 48.5107C48.3974 48.3924 48.4331 48.2585 48.4331 48.1222V30.9347C48.4355 30.0708 48.1459 29.2314 47.6114 28.5528C47.5483 28.4718 47.47 28.4041 47.3807 28.3535C47.2914 28.3029 47.1931 28.2704 47.0912 28.2578C46.9894 28.2453 46.8861 28.2529 46.7872 28.2804C46.6884 28.3078 46.5959 28.3545 46.5151 28.4177Z" fill="#EBDDF1"/>
<path d="M33.5894 31.7158C33.5894 31.5086 33.507 31.3099 33.3605 31.1634C33.214 31.0169 33.0153 30.9346 32.8081 30.9346H13.4097C13.2025 30.9346 13.0038 31.0169 12.8572 31.1634C12.7107 31.3099 12.6284 31.5086 12.6284 31.7158C12.6284 31.923 12.7107 32.1217 12.8572 32.2682C13.0038 32.4148 13.2025 32.4971 13.4097 32.4971H32.8081C33.0153 32.4971 33.214 32.4148 33.3605 32.2682C33.507 32.1217 33.5894 31.923 33.5894 31.7158Z" fill="#EBDDF1"/>
<path d="M7.02686 32.4971H9.42022C9.62742 32.4971 9.82613 32.4148 9.97264 32.2682C10.1192 32.1217 10.2015 31.923 10.2015 31.7158C10.2015 31.5086 10.1192 31.3099 9.97264 31.1634C9.82613 31.0169 9.62742 30.9346 9.42022 30.9346H7.02686C6.81966 30.9346 6.62094 31.0169 6.47443 31.1634C6.32792 31.3099 6.24561 31.5086 6.24561 31.7158C6.24561 31.923 6.32792 32.1217 6.47443 32.2682C6.62094 32.4148 6.81966 32.4971 7.02686 32.4971Z" fill="#EBDDF1"/>
<path d="M31.2456 37.9658C31.2456 37.7586 31.1633 37.5599 31.0168 37.4134C30.8703 37.2669 30.6716 37.1846 30.4644 37.1846H7.02686C6.81966 37.1846 6.62094 37.2669 6.47443 37.4134C6.32792 37.5599 6.24561 37.7586 6.24561 37.9658C6.24561 38.173 6.32792 38.3717 6.47443 38.5182C6.62094 38.6648 6.81966 38.7471 7.02686 38.7471H30.4644C30.6716 38.7471 30.8703 38.6648 31.0168 38.5182C31.1633 38.3717 31.2456 38.173 31.2456 37.9658Z" fill="#EBDDF1"/>
<path d="M30.4642 34.0596H23.6489C23.4417 34.0596 23.243 34.1419 23.0965 34.2884C22.95 34.4349 22.8677 34.6336 22.8677 34.8408C22.8677 35.048 22.95 35.2467 23.0965 35.3932C23.243 35.5398 23.4417 35.6221 23.6489 35.6221H30.4642C30.6714 35.6221 30.8702 35.5398 31.0167 35.3932C31.1632 35.2467 31.2455 35.048 31.2455 34.8408C31.2455 34.6336 31.1632 34.4349 31.0167 34.2884C30.8702 34.1419 30.6714 34.0596 30.4642 34.0596Z" fill="#EBDDF1"/>
<path d="M7.02686 35.6221H21.3221C21.5293 35.6221 21.728 35.5398 21.8745 35.3932C22.021 35.2467 22.1033 35.048 22.1033 34.8408C22.1033 34.6336 22.021 34.4349 21.8745 34.2884C21.728 34.1419 21.5293 34.0596 21.3221 34.0596H7.02686C6.81966 34.0596 6.62094 34.1419 6.47443 34.2884C6.32792 34.4349 6.24561 34.6336 6.24561 34.8408C6.24561 35.048 6.32792 35.2467 6.47443 35.3932C6.62094 35.5398 6.81966 35.6221 7.02686 35.6221Z" fill="#EBDDF1"/>
<path d="M43.9786 41.0908C43.9786 40.8836 43.8962 40.6849 43.7497 40.5384C43.6032 40.3919 43.4045 40.3096 43.1973 40.3096H18.4971C18.2899 40.3096 18.0912 40.3919 17.9446 40.5384C17.7981 40.6849 17.7158 40.8836 17.7158 41.0908C17.7158 41.298 17.7981 41.4967 17.9446 41.6432C18.0912 41.7898 18.2899 41.8721 18.4971 41.8721H43.1973C43.4045 41.8721 43.6032 41.7898 43.7497 41.6432C43.8962 41.4967 43.9786 41.298 43.9786 41.0908Z" fill="#EBDDF1"/>
<path d="M7.02686 40.3096C6.81966 40.3096 6.62094 40.3919 6.47443 40.5384C6.32792 40.6849 6.24561 40.8836 6.24561 41.0908C6.24561 41.298 6.32792 41.4967 6.47443 41.6432C6.62094 41.7898 6.81966 41.8721 7.02686 41.8721H15.6206C15.8278 41.8721 16.0265 41.7898 16.173 41.6432C16.3195 41.4967 16.4019 41.298 16.4019 41.0908C16.4019 40.8836 16.3195 40.6849 16.173 40.5384C16.0265 40.3919 15.8278 40.3096 15.6206 40.3096H7.02686Z" fill="#EBDDF1"/>
<path d="M44.4321 23.0867L33.3832 34.1356C33.2743 34.2447 33.2 34.3835 33.1696 34.5346L32.6173 37.2964C32.5946 37.4098 32.5973 37.5267 32.6253 37.6388C32.6532 37.751 32.7057 37.8555 32.7789 37.9449C32.8522 38.0343 32.9443 38.1063 33.0488 38.1558C33.1532 38.2053 33.2673 38.231 33.3829 38.231C33.4344 38.2308 33.4857 38.2255 33.5362 38.2154L36.2989 37.6631C36.45 37.6327 36.5888 37.5584 36.6979 37.4495L47.7463 26.4017C47.964 26.1841 48.1367 25.9257 48.2545 25.6414C48.3723 25.357 48.433 25.0522 48.433 24.7444C48.433 24.4367 48.3724 24.1319 48.2547 23.8475C48.1369 23.5631 47.9643 23.3047 47.7467 23.0871C47.5291 22.8694 47.2707 22.6967 46.9864 22.5789C46.702 22.4611 46.3973 22.4004 46.0895 22.4004C45.7817 22.4004 45.4769 22.4609 45.1925 22.5787C44.9082 22.6964 44.6498 22.8691 44.4321 23.0867ZM35.7602 36.1779L34.3785 36.4542L34.6547 35.0732L43.8798 25.8485L44.9845 26.9533L35.7602 36.1779ZM46.6415 25.2961L46.0892 25.8485L44.9844 24.7438L45.5369 24.1914C45.6089 24.1168 45.6951 24.0573 45.7905 24.0164C45.8858 23.9754 45.9883 23.9539 46.092 23.953C46.1957 23.9521 46.2986 23.9718 46.3946 24.0111C46.4906 24.0504 46.5779 24.1084 46.6512 24.1818C46.7246 24.2551 46.7826 24.3423 46.8219 24.4383C46.8612 24.5344 46.8809 24.6372 46.88 24.741C46.8791 24.8447 46.8576 24.9472 46.8166 25.0425C46.7757 25.1379 46.7162 25.2241 46.6415 25.2961Z" fill="#EBDDF1"/>
</svg>
