<svg width="53" height="53" viewBox="0 0 53 53" fill="none" xmlns="http://www.w3.org/2000/svg">
<g clip-path="url(#clip0_2010_4777)">
<path d="M40.1225 13.665C39.5708 13.113 38.6761 13.113 38.1241 13.665L13.5447 38.2444C12.9929 38.7962 12.9929 39.6909 13.5447 40.2428C13.8206 40.5188 14.1823 40.6567 14.5439 40.6567C14.9054 40.6567 15.2671 40.5188 15.543 40.2428L40.1224 15.6634C40.6743 15.1115 40.6743 14.2168 40.1225 13.665Z" fill="#EBDDF1"/>
<path d="M45.2182 8.56935C40.3073 3.6585 33.7782 0.954102 26.8335 0.954102C19.8885 0.954102 13.3594 3.6585 8.44874 8.56935C3.538 13.4802 0.833496 20.0092 0.833496 26.9542C0.833496 33.8991 3.538 40.4281 8.44874 45.339C13.3594 50.2498 19.8885 52.9542 26.8335 52.9542C33.7784 52.9542 40.3075 50.2498 45.2184 45.339C55.3555 35.2014 55.3555 18.7067 45.2182 8.56935ZM43.2197 43.3403C38.8428 47.7173 33.0235 50.1277 26.8334 50.1277C20.6434 50.1277 14.8242 47.7173 10.4472 43.3403C6.07005 38.9634 3.65977 33.1439 3.65977 26.9541C3.65977 20.7642 6.07015 14.9447 10.4473 10.5678C14.8241 6.19086 20.6435 3.78038 26.8335 3.78038C33.0236 3.78038 38.8428 6.19086 43.2198 10.5678C52.255 19.6032 52.255 34.3049 43.2197 43.3403Z" fill="#EBDDF1"/>
<path d="M22.8869 16.2125C21.0137 14.3393 17.9656 14.3393 16.0924 16.2125C14.2192 18.0857 14.2192 21.1336 16.0924 23.007C17.029 23.9437 18.2594 24.412 19.4897 24.412C20.7199 24.412 21.9503 23.9437 22.8869 23.007C24.7601 21.1338 24.7601 18.0859 22.8869 16.2125ZM20.8884 21.0085C20.1172 21.7798 18.862 21.7798 18.0909 21.0085C17.3197 20.2372 17.3197 18.9822 18.091 18.211C18.4766 17.8253 18.9831 17.6325 19.4897 17.6325C19.9963 17.6325 20.5029 17.8253 20.8884 18.211C21.6597 18.9822 21.6597 20.2372 20.8884 21.0085Z" fill="#EBDDF1"/>
<path d="M37.5749 30.901C35.7017 29.0278 32.6535 29.0278 30.7804 30.901C28.9072 32.7742 28.9072 35.8221 30.7804 37.6955C31.717 38.6321 32.9474 39.1004 34.1777 39.1004C35.4079 39.1004 36.6383 38.6321 37.5749 37.6955C39.4481 35.8223 39.4481 32.7743 37.5749 30.901ZM35.5764 35.6971C34.8052 36.4683 33.55 36.4683 32.7788 35.6971C32.0076 34.9258 32.0076 33.6708 32.7788 32.8995C33.1645 32.5139 33.671 32.321 34.1776 32.321C34.6842 32.321 35.1907 32.5139 35.5763 32.8995C36.3476 33.6708 36.3476 34.9258 35.5764 35.6971Z" fill="#EBDDF1"/>
</g>
<defs>
<clipPath id="clip0_2010_4777">
<rect width="52" height="52" fill="white" transform="translate(0.827637 0.954102)"/>
</clipPath>
</defs>
</svg>
