<svg width="53" height="54" viewBox="0 0 53 54" fill="none" xmlns="http://www.w3.org/2000/svg">
<g clip-path="url(#clip0_2010_4732)">
<path d="M26.5366 6.69633V10.8305H22.4025V6.69633H26.5366ZM22.4025 30.9844V36.8755H26.5366V30.9844H22.4025ZM34.8049 53.4121V49.278H30.6708V45.1438H26.5366V53.4121H34.8049ZM43.0732 22.7161H30.6708V26.8503H43.0732V22.7161ZM43.0732 30.9844H48.861V26.8503H43.0732V30.9844ZM43.0732 36.8755V41.0097H52.9951V30.9844H48.861V36.8755H43.0732ZM30.6708 0.495117H26.5366V6.69633H30.6708V0.495117ZM26.5366 19.0987H30.6708V10.8305H26.5366V14.9646H22.4025V26.8503H26.5366V19.0987ZM0.078125 22.7161V30.9844H4.21227V26.8503H10.4135V22.7161H0.078125ZM30.6708 30.9844V26.8503H26.5366V30.9844H30.6708ZM38.939 35.1185H43.0732V30.9844H38.939V35.1185ZM48.861 26.8503H52.9951V22.7161H48.861V26.8503ZM34.8049 30.9844H30.6708V36.8755H26.5366V41.0097H34.8049V30.9844ZM22.4025 45.1438H26.5366V41.0097H22.4025V45.1438ZM34.8049 41.0097V45.1438H43.0732V41.0097H34.8049ZM47.2073 49.278V45.1438H43.0732V49.278H47.2073ZM52.9951 53.4121V49.278H47.2073V53.4121H52.9951ZM38.939 53.4121H43.0732V49.278H38.939V53.4121ZM18.6818 26.8503V22.7161H14.5476V26.8503H10.4135V30.9844H22.4025V26.8503H18.6818ZM18.6818 19.0987H0.078125V0.495117H18.6818V19.0987ZM14.5476 4.62926H4.21227V14.9646H14.5476V4.62926ZM11.447 7.72986H7.31287V11.864H11.447V7.72986ZM52.9951 0.495117V19.0987H34.3915V0.495117H52.9951ZM48.861 4.62926H38.5256V14.9646H48.861V4.62926ZM45.7604 7.72986H41.6262V11.864H45.7604V7.72986ZM0.078125 34.8085H18.6818V53.4121H0.078125V34.8085ZM4.21227 49.278H14.5476V38.9426H4.21227V49.278ZM7.31287 46.1774H11.447V42.0432H7.31287V46.1774Z" fill="#EBDDF1"/>
</g>
<defs>
<clipPath id="clip0_2010_4732">
<path d="M0.078125 7.49512C0.078125 3.62913 3.21213 0.495117 7.07812 0.495117H52.9951V53.4121H0.078125V7.49512Z" fill="white"/>
</clipPath>
</defs>
</svg>
