<svg width="21" height="21" viewBox="0 0 21 21" fill="none" xmlns="http://www.w3.org/2000/svg">
<g clip-path="url(#clip0_2010_2519)">
<path d="M10.1382 0.0507812C4.62385 0.0507812 0.138184 4.53645 0.138184 10.0508C0.138184 15.5651 4.62385 20.0508 10.1382 20.0508C15.6525 20.0508 20.1382 15.5643 20.1382 10.0508C20.1382 4.53723 15.6525 0.0507812 10.1382 0.0507812ZM10.1382 18.5016C5.479 18.5016 1.68736 14.7107 1.68736 10.0508C1.68736 5.39082 5.479 1.59996 10.1382 1.59996C14.7974 1.59996 18.589 5.39082 18.589 10.0508C18.589 14.7107 14.7981 18.5016 10.1382 18.5016Z" fill="#2D8C00"/>
<path d="M14.0113 9.20695H10.9129V6.10859C10.9129 5.68102 10.5667 5.33398 10.1383 5.33398C9.70994 5.33398 9.36369 5.68102 9.36369 6.10859V9.20695H6.26533C5.83697 9.20695 5.49072 9.55398 5.49072 9.98156C5.49072 10.4091 5.83697 10.7562 6.26533 10.7562H9.36369V13.8545C9.36369 14.2821 9.70994 14.6291 10.1383 14.6291C10.5667 14.6291 10.9129 14.2821 10.9129 13.8545V10.7562H14.0113C14.4396 10.7562 14.7859 10.4091 14.7859 9.98156C14.7859 9.55398 14.4396 9.20695 14.0113 9.20695Z" fill="#2D8C00"/>
</g>
<defs>
<clipPath id="clip0_2010_2519">
<rect width="20" height="20" fill="white" transform="translate(0.138184 0.0507812)"/>
</clipPath>
</defs>
</svg>
