<svg width="33" height="32" viewBox="0 0 33 32" fill="none" xmlns="http://www.w3.org/2000/svg">
<path d="M16.7319 8.58691V13.0269" stroke="#7A1FA0" stroke-width="2" stroke-miterlimit="10" stroke-linecap="round"/>
<path d="M16.7586 2.66699C11.8519 2.66699 7.87859 6.64033 7.87859 11.547V14.347C7.87859 15.2537 7.50525 16.6137 7.03859 17.387L5.34525 20.2137C4.30525 21.9603 5.02525 23.907 6.94525 24.547C13.3186 26.667 20.2119 26.667 26.5853 24.547C28.3853 23.947 29.1586 21.8403 28.1853 20.2137L26.4919 17.387C26.0253 16.6137 25.6519 15.2403 25.6519 14.347V11.547C25.6386 6.66699 21.6386 2.66699 16.7586 2.66699Z" stroke="#7A1FA0" stroke-width="2" stroke-miterlimit="10" stroke-linecap="round"/>
<path d="M21.1719 25.0938C21.1719 27.5338 19.1719 29.5338 16.7319 29.5338C15.5186 29.5338 14.3986 29.0271 13.5986 28.2271C12.7986 27.4271 12.2919 26.3071 12.2919 25.0938" stroke="#7A1FA0" stroke-width="2" stroke-miterlimit="10"/>
</svg>
