<svg width="21" height="21" viewBox="0 0 21 21" fill="none" xmlns="http://www.w3.org/2000/svg">
<path d="M17.6382 5.03385C14.8632 4.75885 12.0715 4.61719 9.28818 4.61719C7.63818 4.61719 5.98818 4.70052 4.33818 4.86719L2.63818 5.03385" stroke="#FF0000" stroke-width="1.25" stroke-linecap="round" stroke-linejoin="round"/>
<path d="M7.22144 4.1918L7.40477 3.10013C7.5381 2.30846 7.6381 1.7168 9.04644 1.7168H11.2298C12.6381 1.7168 12.7464 2.3418 12.8714 3.10846L13.0548 4.1918" stroke="#FF0000" stroke-width="1.25" stroke-linecap="round" stroke-linejoin="round"/>
<path d="M15.8464 7.66602L15.3047 16.0577C15.213 17.366 15.138 18.3827 12.813 18.3827H7.46302C5.13802 18.3827 5.06302 17.366 4.97135 16.0577L4.42969 7.66602" stroke="#FF0000" stroke-width="1.25" stroke-linecap="round" stroke-linejoin="round"/>
<path d="M8.74658 13.7998H11.5216" stroke="#FF0000" stroke-width="1.25" stroke-linecap="round" stroke-linejoin="round"/>
<path d="M8.05493 10.4668H12.2216" stroke="#FF0000" stroke-width="1.25" stroke-linecap="round" stroke-linejoin="round"/>
</svg>
