<svg width="21" height="21" viewBox="0 0 21 21" fill="none" xmlns="http://www.w3.org/2000/svg">
<g clip-path="url(#clip0_2010_2906)">
<circle cx="15.4775" cy="14.1548" r="4.18213" fill="#FF0000"/>
<path d="M17.8623 12.6012C18.0454 12.7843 18.0454 13.0811 17.8623 13.2642L15.2334 15.8931C15.1455 15.981 15.0263 16.0304 14.902 16.0304C14.7777 16.0304 14.6584 15.981 14.5705 15.8931L12.9726 14.2951C12.7895 14.112 12.7895 13.8153 12.9726 13.6322C13.1557 13.4491 13.4525 13.4491 13.6355 13.6322L14.902 14.8987L17.1995 12.6012C17.3825 12.4182 17.6793 12.4182 17.8623 12.6012ZM20.1486 14.2471C20.1486 16.8559 18.0262 18.9783 15.4175 18.9783C14.9387 18.9783 14.4764 18.9066 14.0405 18.7737C12.0621 19.7467 10.058 20.2378 8.0714 20.2378C7.78871 20.2378 7.50664 20.2279 7.22476 20.208C4.955 20.0477 2.66219 19.237 0.410038 17.7981C0.28871 17.7206 0.209725 17.5916 0.195858 17.4482C0.00531112 15.4806 0.405077 13.5609 1.3216 12.0429C2.19281 10.5999 3.49004 9.55047 5.10172 8.97512C4.47058 8.22504 4.0266 7.34562 3.80812 6.40156C3.55746 5.31832 3.62781 4.20527 4.00617 3.26746C4.66668 1.63051 6.15308 0.675937 8.08433 0.648516L8.09098 0.648438L8.09762 0.648516C10.0289 0.675977 11.5153 1.63055 12.1757 3.2675C12.5541 4.20527 12.6245 5.31832 12.3738 6.40156C12.1553 7.3457 11.7112 8.22519 11.08 8.97535C11.8398 9.24633 12.5301 9.62281 13.1418 10.1003C13.8174 9.72809 14.593 9.51598 15.4174 9.51598C18.0262 9.51594 20.1486 11.6384 20.1486 14.2471ZM6.15078 8.73277C6.80515 9.38176 7.45793 9.71082 8.09098 9.71082C8.72402 9.71082 9.3768 9.38176 10.0311 8.73277C11.4352 7.34035 11.9596 5.23719 11.3064 3.6182C10.7872 2.33156 9.64551 1.61 8.09098 1.58594C6.53641 1.61 5.39469 2.33156 4.87555 3.6182C4.22234 5.23723 4.74672 7.34039 6.15078 8.73277ZM12.9151 18.2606C11.5777 17.4237 10.6862 15.9377 10.6862 14.2471C10.6862 12.8169 11.3243 11.5329 12.3305 10.6646C11.7421 10.2492 11.0752 9.93309 10.3394 9.72113C9.61086 10.3366 8.85621 10.6484 8.09098 10.6484C7.32574 10.6484 6.57113 10.3366 5.84258 9.72117C2.67734 10.6355 0.843085 13.5043 1.10961 17.1309C5.07535 19.598 8.94718 19.9697 12.9151 18.2606ZM19.2111 14.2471C19.2111 12.1553 17.5093 10.4534 15.4175 10.4534C13.3256 10.4534 11.6237 12.1553 11.6237 14.2471C11.6237 16.339 13.3256 18.0408 15.4175 18.0408C17.5093 18.0408 19.2111 16.339 19.2111 14.2471Z" fill="black"/>
</g>
<defs>
<clipPath id="clip0_2010_2906">
<rect width="20" height="20" fill="white" transform="translate(0.148438 0.443359)"/>
</clipPath>
</defs>
</svg>
