<svg width="31" height="31" viewBox="0 0 31 31" fill="none" xmlns="http://www.w3.org/2000/svg">
<path d="M23.599 7.35462C27.9923 11.748 27.9923 18.8711 23.599 23.2644C19.2056 27.6579 12.0825 27.6579 7.68909 23.2644C3.29569 18.8711 3.29569 11.748 7.68909 7.35462C12.0825 2.96122 19.2056 2.96122 23.599 7.35462Z" stroke="black" stroke-width="1.5" stroke-linecap="round" stroke-linejoin="round"/>
<path d="M18.1303 10.7144C19.5034 12.0876 19.5034 14.3139 18.1303 15.6872C16.7572 17.0603 14.5308 17.0603 13.1575 15.6872C11.7844 14.3139 11.7844 12.0876 13.1575 10.7144C14.5308 9.34128 16.7572 9.34128 18.1303 10.7144Z" stroke="black" stroke-width="1.5" stroke-linecap="round" stroke-linejoin="round"/>
<path d="M22.7778 24.0071C20.984 22.1183 18.454 20.9346 15.644 20.9346C12.834 20.9346 10.304 22.1183 8.51025 24.0083" stroke="black" stroke-width="1.5" stroke-linecap="round" stroke-linejoin="round"/>
</svg>
